<svg xmlns="http://www.w3.org/2000/svg" width="1100" height="250" viewBox="0 0 1100 250">
  <defs>
    <marker id="arrow" markerWidth="10" markerHeight="10" refX="8" refY="3" orient="auto">
      <path d="M0,0 L0,6 L9,3 z" fill="#334155"/>
    </marker>
    <style>
      text { font-family: "Microsoft YaHei", "Noto Sans CJK SC", Arial, sans-serif; fill: #0f172a; }
      .title { font-size: 22px; font-weight: 700; }
      .box { fill: #f8fafc; stroke: #334155; stroke-width: 1.5; rx: 10; }
      .name { font-size: 15px; font-weight: 700; }
      .note { font-size: 12px; fill: #475569; }
      .line { stroke: #334155; stroke-width: 1.8; fill: none; marker-end: url(#arrow); }
    </style>
  </defs>
  <text x="40" y="42" class="title">header frame ç»“æž„</text>
  <rect x="35" y="100" width="145" height="70" class="box"/>
  <text x="108" y="128" text-anchor="middle" class="name">SOF preamble</text>
  <text x="108" y="150" text-anchor="middle" class="note">å¸§å¼€å§?/text>
  <rect x="230" y="100" width="170" height="70" class="box"/>
  <text x="315" y="128" text-anchor="middle" class="name">header command</text>
  <text x="315" y="150" text-anchor="middle" class="note">header_cmd_1/2_en</text>
  <rect x="450" y="100" width="170" height="70" class="box"/>
  <text x="535" y="128" text-anchor="middle" class="name">header payload</text>
  <text x="535" y="150" text-anchor="middle" class="note">header_en / header_cnt</text>
  <rect x="670" y="100" width="140" height="70" class="box"/>
  <text x="740" y="128" text-anchor="middle" class="name">footer</text>
  <text x="740" y="150" text-anchor="middle" class="note">footer_en</text>
  <rect x="860" y="100" width="120" height="70" class="box"/>
  <text x="920" y="128" text-anchor="middle" class="name">CRC</text>
  <text x="920" y="150" text-anchor="middle" class="note">CRC Êä³ö½ÚÅÄ</text>
  <rect x="1020" y="100" width="60" height="70" class="box"/>
  <text x="1050" y="140" text-anchor="middle" class="name">EOF</text>
  <path d="M180 135 L230 135" class="line"/>
  <path d="M400 135 L450 135" class="line"/>
  <path d="M620 135 L670 135" class="line"/>
  <path d="M810 135 L860 135" class="line"/>
  <path d="M980 135 L1020 135" class="line"/>
</svg>
